<svg viewBox="0 0 521 269" version="1.1" xmlns="http://www.w3.org/2000/svg" xmlns:xlink="http://www.w3.org/1999/xlink">
<title>devcloud-logo</title>
<desc>Created using Figma</desc>
<g id="Canvas" transform="translate(-561 -145)">
<g id="devcloud-logo">
<g id="Combined Shape">
<use xlink:href="#path0_fill" transform="translate(561 145)" fill="#FFFFFF"/>
</g>
<g id="&#60;/&#62;">
<use xlink:href="#path1_fill" transform="translate(665 179)" fill="#7B16FF"/>
</g>
</g>
</g>
<defs>
<path id="path0_fill" fill-rule="evenodd" d="M 422.994 72.1866C 400.381 29.2777 355.144 0 303.025 0C 268.67 0 237.305 12.7217 213.439 33.6834C 199.299 28.0382 183.858 24.9317 167.687 24.9317C 113.204 24.9317 67.0083 60.1951 50.9485 109.009C 20.9939 121.719 0 151.261 0 185.676C 0 231.694 37.5381 269 83.8436 269C 84.0639 269 84.2839 268.999 84.5038 268.997L 84.5038 269L 167.687 269L 303.025 269L 421.199 269C 475.89 269 520.227 224.938 520.227 170.585C 520.227 116.828 476.857 73.1381 422.994 72.1866Z"/>
<path id="path1_fill" d="M 43.5781 117C 42.2448 116.2 41.5781 115.067 41.5781 113.6L 41.5781 112.6C 41.5781 111.133 42.2448 110 43.5781 109.2L 111.578 66.8C 112.911 66 114.178 65.9333 115.378 66.6C 116.578 67.2667 117.178 68.4 117.178 70L 117.178 77.2C 117.178 78.8 116.445 80.0667 114.978 81L 62.7781 113L 114.978 143.8C 116.445 144.733 117.178 146 117.178 147.6L 117.178 154.8C 117.178 156.4 116.578 157.533 115.378 158.2C 114.178 158.867 112.911 158.8 111.578 158L 43.5781 117ZM 132.469 154L 171.669 21.6C 172.202 19.8667 173.402 19 175.269 19L 179.669 19C 181.135 19 182.202 19.5333 182.869 20.6C 183.535 21.5333 183.669 22.6667 183.269 24L 144.269 156.4C 143.735 158.133 142.535 159 140.669 159L 136.069 159C 134.735 159 133.669 158.533 132.869 157.6C 132.202 156.533 132.069 155.333 132.469 154ZM 195.731 154.8L 195.731 147.6C 195.731 145.867 196.465 144.6 197.931 143.8L 250.131 113L 197.931 81C 196.465 80.0667 195.731 78.8 195.731 77.2L 195.731 70C 195.731 68.4 196.331 67.2667 197.531 66.6C 198.731 65.9333 199.998 66 201.331 66.8L 269.331 109.2C 270.665 110 271.331 111.133 271.331 112.6L 271.331 113.6C 271.331 115.067 270.665 116.2 269.331 117L 201.331 158C 199.998 158.8 198.731 158.867 197.531 158.2C 196.331 157.533 195.731 156.4 195.731 154.8Z"/>
</defs>
</svg>
