<?xml version="1.0" encoding="UTF-8"?>
<svg width="900px" height="700px" viewBox="0 0 900 700" version="1.1" xmlns="http://www.w3.org/2000/svg" xmlns:xlink="http://www.w3.org/1999/xlink">
    <!-- Generator: Sketch 45.2 (43514) - http://www.bohemiancoding.com/sketch -->
    <title>Flat Web Design Freebie by Andrei Dulcu</title>
    <desc>Created with Sketch.</desc>
    <defs>
        <linearGradient x1="0%" y1="0%" x2="101.999998%" y2="100.999999%" id="linearGradient-1">
            <stop stop-color="#3023AE" offset="0%"></stop>
            <stop stop-color="#7B16FF" offset="100%"></stop>
        </linearGradient>
    </defs>
    <g id="Page-1" stroke="none" stroke-width="1" fill="none" fill-rule="evenodd">
        <g id="Flat-Web-Design-Freebie-by-Andrei-Dulcu">
            <g id="header" transform="translate(-55.000000, -14.000000)">
                <rect id="blue" fill="url(#linearGradient-1)" x="39.1073093" y="0" width="1461.00897" height="622.822623"></rect>
                <g id="waves" transform="translate(0.000000, 368.776553)">
                    <g id="graph-copy" opacity="0.718127264" transform="translate(37.101806, 0.000000)">
                        <path d="M9.9440518,2.5740755 C11.4772713,-3.5532829 56.0811365,2.11631027 87.2905865,11.1053639 C114.639498,18.9824918 141.883622,32.4976455 167.636035,50.7403417 C191.231937,67.4553921 214.945828,84.3622621 230.044839,104.107622 C234.697783,110.192394 242.072337,113.879409 246.62277,120.045479 C250.191608,124.881439 257.604469,129.356683 260.21532,133.272308 C261.938453,135.856579 265.971814,137.49782 267.669299,138.759378 C268.493343,139.371802 265.324609,140.438331 267.669299,140.438331 C275.242092,140.438331 275.8891,148.514485 281.18877,154.606218 C289.863348,164.577256 302.664497,175.984929 316.880717,188.027609 C352.814337,218.467285 406.07662,245.196329 437.332578,244.639022 C460.395839,244.227794 497.364591,239.9716 528.953726,225.993387 C558.672002,212.84303 582.973497,190.569052 606.703544,170.830131 C623.692478,156.698544 637.351723,139.594377 652.017456,126.343382 C669.512103,110.536366 687.571024,99.0165027 702.484737,88.1177544 C709.940406,82.6692483 722.273013,79.139532 728.56825,75.303756 C731.290303,73.6451714 732.957887,74.0966668 735.334142,73.4085155 C736.549102,73.0566692 737.788533,71.2509934 739.781698,71.1055624 C752.043843,70.2108566 764.41824,66.6434794 776.599591,65.7680217 C815.497638,62.9724704 854.544127,77.6322752 890.355321,101.013019 C925.882269,124.208182 958.184194,156.007633 994.177826,182.573046 C1044.6015,219.788676 1100.51906,247.573859 1149.38244,244.639022 C1167.48254,243.551893 1187.51022,241.227753 1200.66275,233.52247 C1207.45072,229.545799 1216.68032,226.29248 1222.68117,221.606058 C1224.51973,220.170224 1225.71498,217.871491 1228.43329,217.03464 C1239.83345,213.525004 1245.55578,202.312671 1254.29233,191.273493 C1272.51115,168.252867 1290.80484,138.382942 1309.62482,127.370938 C1316.80124,123.171853 1319.84792,118.793469 1323.0895,116.396433 C1330.65576,110.801452 1333.1098,109.624314 1347.36902,101.013019 C1355.62628,96.0263688 1397.99008,95.5779226 1405.38759,91.3925081 C1418.65478,91.2385469 1440.05826,93.714938 1444.60947,92.705661 C1466.6816,87.8109489 1482.42785,108.82072 1503.76582,104.107622 C1552.79128,93.2789533 1622.36066,99.2093515 1683.70606,121.869085 C1689.22924,123.909232 1694.66203,124.539806 1700.45451,126.343382 C1718.50932,131.965016 1734.98489,138.784366 1750.56452,146.083056 C1768.60667,154.53538 1789.22322,159.076466 1803.66803,165.161026 C1812.04307,168.688827 1819.80373,171.605352 1825.97854,173.757327 C1829.66274,175.041302 1831.67025,176.944279 1835.98214,176.078279 C1839.12052,175.447968 1842.61659,181.096171 1845.44171,182.573046 C1849.74965,184.825093 1853.33794,183.727285 1858.32513,185.786297 C1872.80467,191.764319 1893.79286,195.788285 1912.32994,202.101228 C1917.16502,203.747852 1922.01978,205.123742 1927.27038,206.349807 C1946.82899,210.916929 1964.98361,213.878688 1982.36053,217.03464 C2013.42012,222.675602 2035.36808,227.010784 2046.19571,214.326862 C2086.98943,166.539468 2021.85254,0.0873406444 2021.85254,0.0873406444 L2021.85254,254.728989 L26.3298138,254.728989 C26.3298138,254.728989 -19.003115,118.25853 9.9440518,2.5740755 Z" id="Rectangle" fill="#FFFFFF"></path>
                        <path d="M12.4720171,0.0873406444 C227.857535,0.0873475118 285.299732,244.037656 445.903256,244.037656 C606.50678,244.037656 644.691424,65.3600679 785.888689,65.3600679 C927.085954,65.3600679 986.990077,244.037656 1151.91436,244.037656 C1253.66998,244.037656 1262.46274,147.890179 1339.43318,105.735152 C1387.21551,79.5658151 1500.0656,99.4754695 1560.09846,99.4754695 C1716.83561,99.4754695 1859.97432,223.405882 2060.65438,223.405882" id="COMMENTS_GRAPH" stroke="#FFFFFF" stroke-width="4" stroke-linecap="round" stroke-linejoin="round"></path>
                    </g>
                    <g id="graph-copy-2" opacity="0.542572464" transform="translate(0.000000, 59.414000)">
                        <path d="M7.45682911,1.97368791 C8.60655724,-2.7245011 42.0540299,1.62269366 65.4573206,8.51510475 C85.9656768,14.5549401 106.395456,24.9177657 125.706633,38.9054631 C143.400689,51.7218288 161.183222,64.6852734 172.505643,79.8251472 C175.994785,84.4906831 181.524804,87.3177237 184.937075,92.0455955 C187.613269,95.7535969 193.172013,99.1850169 195.129833,102.187346 C196.421974,104.168851 199.446504,105.427283 200.719411,106.39459 C201.337344,106.86417 198.961179,107.681937 200.719411,107.681937 C206.398084,107.681937 206.883262,113.874377 210.85737,118.54525 C217.362248,126.190603 226.961552,134.937506 237.621988,144.171304 C264.567831,167.511108 304.508064,188.005764 327.94623,187.578446 C345.24087,187.263134 372.962937,183.999672 396.650945,173.281792 C418.936036,163.198677 437.159201,146.11997 454.95385,130.985034 C467.693483,120.149554 477.936256,107.034831 488.933772,96.8745501 C502.052628,84.7544255 515.594622,75.9215007 526.778093,67.5648197 C532.368937,63.3871448 541.616892,60.6807136 546.337554,57.7396091 C548.423988,56.4397027 550.912826,56.9306876 552.7665,56.4060803 C553.653545,56.1550382 553.316413,54.6272969 554.746276,54.5206189 C563.941393,53.8345978 573.220685,51.0992898 582.355216,50.4280274 C611.524019,48.2845216 640.804136,59.5250153 667.658175,77.4523414 C694.299064,95.2373725 718.521578,119.619793 745.512423,139.988984 C783.324044,168.524294 825.255414,189.828749 861.897004,187.578446 C884.620967,186.182878 909.514197,182.939586 931.096947,176.14561 C957.472858,167.842807 979.974818,154.945242 1000.85504,142.452764 C1018.79742,131.717968 1037.98211,121.441622 1053.2558,112.010065 C1059.44774,108.186521 1066.25322,105.396538 1071.80045,102.187346 C1074.57706,100.581023 1077.62359,97.805539 1081.72936,96.8745501 C1098.28077,93.1215 1111.64055,83.4389437 1127.64143,79.8251472 C1164.40455,71.5222001 1216.57313,76.0693687 1262.57472,93.4438561 C1266.71643,95.0081511 1270.79036,95.4916479 1275.13402,96.8745501 C1288.67292,101.184972 1301.0276,106.41375 1312.71043,112.010065 C1326.23984,118.490935 1341.69974,121.97284 1352.5316,126.638213 C1358.81186,129.343176 1364.63141,131.579439 1369.26177,133.229479 C1372.02447,134.213974 1373.52986,135.673093 1376.76325,135.009083 C1379.11665,134.525788 1381.73828,138.856582 1383.85678,139.988984 C1387.08721,141.715755 1389.77799,140.874004 1393.51777,142.452764 C1404.37567,147.036448 1420.11426,150.121848 1434.01481,154.962336 C1437.64053,156.224895 1441.28101,157.279866 1445.21832,158.219959 C1459.8849,161.721828 1473.49866,163.992774 1486.52923,166.412619 C1509.82015,170.737861 1526.27845,174.061888 1534.39786,164.336414 C1564.98818,127.695142 1516.14344,0.0669689659 1516.14344,0.0669689659 L1516.14344,195.314989 L19.7441572,195.314989 C19.7441572,195.314989 -14.2500244,90.6754411 7.45682911,1.97368791 Z" id="Rectangle" fill="#FFFFFF"></path>
                        <path d="M9.35249552,0.0669689659 C170.865431,0.0669742315 213.940091,187.117344 334.373196,187.117344 C454.8063,187.117344 483.440138,50.1152263 589.32091,50.1152263 C695.201681,50.1152263 740.122486,187.117344 863.795638,187.117344 C987.468789,187.117344 1052.35027,76.2734163 1169.88406,76.2734163 C1287.41784,76.2734163 1394.75447,171.297808 1545.24009,171.297808" id="COMMENTS_GRAPH" stroke="#FFFFFF" stroke-width="4" stroke-linecap="round" stroke-linejoin="round"></path>
                    </g>
                    <g id="graph" transform="translate(28.077043, 109.631120)">
                        <path d="M10.456981,1.56121004 C12.0692863,-1.99310706 58.9738861,1.29567265 91.7931666,6.50998279 C120.552776,11.0792945 149.202193,18.9190746 176.282955,29.5011758 C201.095969,39.1971305 226.033058,49.0043547 241.910899,60.4581111 C246.803848,63.9877252 254.558794,66.1264639 259.343944,69.7032369 C263.096869,72.5084482 270.892096,75.1044175 273.637618,77.3757674 C275.449634,78.8748338 279.691041,79.8268742 281.476085,80.5586702 C282.342635,80.9139208 279.010453,81.5325857 281.476085,81.5325857 C289.439494,81.5325857 290.119876,86.2173474 295.692911,89.7509991 C304.814937,95.5349319 318.276388,102.152219 333.225902,109.137856 C371.013033,126.7951 427.022665,142.299905 459.890852,141.976626 C484.143751,141.738084 523.019407,139.269179 556.237957,131.160791 C587.489146,123.53262 613.044149,110.61208 637.998228,99.1620583 C655.863476,90.9647018 670.227287,81.0430308 685.6495,73.356482 C704.046547,64.187254 723.036974,57.5048886 738.71996,51.1828155 C746.560203,48.0222826 759.528945,45.9747883 766.1489,43.749757 C770.474913,42.2957419 771.74541,41.5638526 777.940754,41.3144969 C790.835399,40.795502 803.848085,38.7261616 816.657769,38.218332 C857.562236,36.5967073 898.622802,45.1004688 936.281191,58.6630142 C973.640674,72.1179093 1007.60878,90.5639224 1045.45902,105.97381 C1098.48362,127.561604 1157.2855,143.679047 1208.66932,141.976626 C1240.53596,140.920839 1275.44463,138.467193 1305.7109,133.327352 C1342.6988,127.04604 1374.25411,117.288655 1403.53519,107.837731 C1428.69645,99.7165449 1455.59983,91.9421886 1477.01868,84.8069404 C1485.70186,81.9143179 1495.24543,79.8036147 1503.02451,77.3757674 C1506.91825,76.1605368 1511.1905,74.0608022 1516.94818,73.356482 C1540.15882,70.5171901 1558.89372,63.1920536 1581.33233,60.4581111 C1632.88659,54.1766893 1706.04447,57.6167551 1770.55416,70.7610618 C1776.36223,71.9444966 1782.07526,72.3102761 1788.16652,73.356482 C1807.15262,76.6174417 1824.47803,80.5731648 1840.86128,84.8069404 C1859.83407,89.7099077 1881.51405,92.3440706 1896.70395,95.8735615 C1905.51099,97.919945 1913.67195,99.6117432 1920.16527,100.860046 C1924.03951,101.604846 1926.15057,102.708712 1930.68487,102.206369 C1933.98513,101.840742 1937.66154,105.117114 1940.63238,105.97381 C1945.16253,107.280162 1948.9359,106.643353 1954.18034,107.837731 C1969.40676,111.305422 1991.47756,113.639617 2010.9708,117.301587 C2016.05528,118.25675 2021.16046,119.054867 2026.68189,119.766074 C2047.24936,122.41534 2066.34043,124.133377 2084.61368,125.964061 C2117.27537,129.236233 2140.35544,131.750956 2151.74157,124.393351 C2194.6395,96.673159 2126.14275,0.118721511 2126.14275,0.118721511 L2126.14275,147.829547 L27.6879453,147.829547 C27.6879453,147.829547 -19.9833243,68.6666751 10.456981,1.56121004 Z" id="Rectangle" fill="#FFFFFF"></path>
                        <path d="M13.1153425,0.118721511 C239.610771,0.118725495 300.015922,141.62779 468.903618,141.62779 C637.791314,141.62779 677.94558,37.9816889 826.426013,37.9816889 C974.906446,37.9816889 1037.90051,141.62779 1211.33184,141.62779 C1384.76318,141.62779 1475.74882,57.771123 1640.5707,57.771123 C1805.39258,57.771123 1955.91461,129.659848 2166.94604,129.659848" id="COMMENTS_GRAPH" stroke="#FFFFFF" stroke-width="4" stroke-linecap="round" stroke-linejoin="round"></path>
                    </g>
                </g>
            </g>
        </g>
    </g>
</svg>