<?xml version="1.0" encoding="UTF-8"?>
<svg width="19px" height="16px" viewBox="0 0 19 16" version="1.1" xmlns="http://www.w3.org/2000/svg" xmlns:xlink="http://www.w3.org/1999/xlink">
    <!-- Generator: Sketch 40.3 (33839) - http://www.bohemiancoding.com/sketch -->
    <title>Shape</title>
    <desc>Created with Sketch.</desc>
    <defs></defs>
    <g id="Page-1" stroke="none" stroke-width="1" fill="none" fill-rule="evenodd">
        <path d="M0,13 L2,13 L2,13.5 L1,13.5 L1,14.5 L2,14.5 L2,15 L0,15 L0,16 L3,16 L3,12 L0,12 L0,13 L0,13 Z M1,4 L2,4 L2,0 L0,0 L0,1 L1,1 L1,4 L1,4 Z M0,7 L1.8,7 L0,9.1 L0,10 L3,10 L3,9 L1.2,9 L3,6.9 L3,6 L0,6 L0,7 L0,7 Z M5,1 L5,3 L19,3 L19,1 L5,1 L5,1 Z M5,15 L19,15 L19,13 L5,13 L5,15 L5,15 Z M5,9 L19,9 L19,7 L5,7 L5,9 L5,9 Z" id="Shape" fill="#fff"></path>
    </g>
</svg>