<?xml version="1.0" encoding="UTF-8"?>
<svg width="20px" height="16px" viewBox="0 0 20 16" version="1.1" xmlns="http://www.w3.org/2000/svg" xmlns:xlink="http://www.w3.org/1999/xlink">
    <!-- Generator: Sketch 40.3 (33839) - http://www.bohemiancoding.com/sketch -->
    <title>Shape</title>
    <desc>Created with Sketch.</desc>
    <defs></defs>
    <g id="Page-1" stroke="none" stroke-width="1" fill="none" fill-rule="evenodd">
        <path d="M1.6183412,6.4733648 C0.722859069,6.4733648 0,7.19622387 0,8.091706 C0,8.98718813 0.722859069,9.7100472 1.6183412,9.7100472 C2.51382333,9.7100472 3.2366824,8.98718813 3.2366824,8.091706 C3.2366824,7.19622387 2.51382333,6.4733648 1.6183412,6.4733648 L1.6183412,6.4733648 Z M1.6183412,0 C0.722859069,0 0,0.722859069 0,1.6183412 C0,2.51382333 0.722859069,3.2366824 1.6183412,3.2366824 C2.51382333,3.2366824 3.2366824,2.51382333 3.2366824,1.6183412 C3.2366824,0.722859069 2.51382333,0 1.6183412,0 L1.6183412,0 Z M1.6183412,13.1301416 C0.819959541,13.1301416 0.183412003,13.7774781 0.183412003,14.5650708 C0.183412003,15.3526635 0.830748483,16 1.6183412,16 C2.40593392,16 3.0532704,15.3526635 3.0532704,14.5650708 C3.0532704,13.7774781 2.41672286,13.1301416 1.6183412,13.1301416 L1.6183412,13.1301416 Z M4.8550236,15.6439649 L19.9595415,15.6439649 L19.9595415,13.4861767 L4.8550236,13.4861767 L4.8550236,15.6439649 L4.8550236,15.6439649 Z M4.8550236,9.17060013 L19.9595415,9.17060013 L19.9595415,7.01281187 L4.8550236,7.01281187 L4.8550236,9.17060013 L4.8550236,9.17060013 Z M4.8550236,0.539447067 L4.8550236,2.69723533 L19.9595415,2.69723533 L19.9595415,0.539447067 L4.8550236,0.539447067 L4.8550236,0.539447067 Z" id="Shape" fill="#fff"></path>
    </g>
</svg>