<?xml version="1.0" encoding="UTF-8"?>
<svg width="18px" height="12px" viewBox="0 0 18 12" version="1.1" xmlns="http://www.w3.org/2000/svg" xmlns:xlink="http://www.w3.org/1999/xlink">
    <!-- Generator: Sketch 47.1 (45422) - http://www.bohemiancoding.com/sketch -->
    <title>text_heading_3</title>
    <desc>Created with Sketch.</desc>
    <defs></defs>
    <g id="Page-1" stroke="none" stroke-width="1" fill="none" fill-rule="evenodd">
        <g id="text_heading_3" fill="#FFFFFF">
            <path d="M9.07128906,11 L6.68554688,11 L6.68554688,6.84375 L3.15136719,6.84375 L3.15136719,11 L0.751953125,11 L0.751953125,1.046875 L3.15136719,1.046875 L3.15136719,4.99804688 L6.68554688,4.99804688 L6.68554688,1.046875 L9.07128906,1.046875 L9.07128906,11 Z M12.5507812,5.05957031 L13.6376953,5.05957031 C14.4990277,5.05957031 14.9296875,4.63802505 14.9296875,3.79492188 C14.9296875,3.46679523 14.8271495,3.19905703 14.6220703,2.99169922 C14.4169912,2.78434141 14.127606,2.68066406 13.7539062,2.68066406 C13.4485662,2.68066406 13.1831066,2.76953036 12.9575195,2.94726562 C12.7319325,3.12500089 12.6191406,3.34602732 12.6191406,3.61035156 L10.3154297,3.61035156 C10.3154297,3.0862604 10.4612616,2.61914268 10.7529297,2.20898438 C11.0445978,1.79882607 11.4490534,1.47867954 11.9663086,1.24853516 C12.4835638,1.01839078 13.0520802,0.903320312 13.671875,0.903320312 C14.7793024,0.903320312 15.6497364,1.15624747 16.2832031,1.66210938 C16.9166698,2.16797128 17.2333984,2.86295131 17.2333984,3.74707031 C17.2333984,4.17545787 17.1023776,4.57991346 16.840332,4.96044922 C16.5782865,5.34098498 16.1966171,5.6497384 15.6953125,5.88671875 C16.223961,6.07812596 16.6386704,6.3686504 16.9394531,6.75830078 C17.2402359,7.14795117 17.390625,7.62987994 17.390625,8.20410156 C17.390625,9.09277788 17.0488315,9.80370827 16.3652344,10.3369141 C15.6816372,10.8701199 14.7838597,11.1367188 13.671875,11.1367188 C13.020179,11.1367188 12.4152046,11.0125338 11.8569336,10.7641602 C11.2986626,10.5157865 10.875978,10.1717144 10.5888672,9.73193359 C10.3017564,9.29215275 10.1582031,8.79199499 10.1582031,8.23144531 L12.4755859,8.23144531 C12.4755859,8.53678538 12.5986316,8.80110565 12.8447266,9.02441406 C13.0908215,9.24772247 13.3938784,9.359375 13.7539062,9.359375 C14.1595072,9.359375 14.4830717,9.24658316 14.7246094,9.02099609 C14.966147,8.79540903 15.0869141,8.50716321 15.0869141,8.15625 C15.0869141,7.65494541 14.9615898,7.29948021 14.7109375,7.08984375 C14.4602852,6.88020729 14.1139345,6.77539063 13.671875,6.77539063 L12.5507812,6.77539063 L12.5507812,5.05957031 Z" id="H3"></path>
        </g>
    </g>
</svg>