<?xml version="1.0" encoding="UTF-8"?>
<svg width="20px" height="10px" viewBox="0 0 20 10" version="1.1" xmlns="http://www.w3.org/2000/svg" xmlns:xlink="http://www.w3.org/1999/xlink">
    <!-- Generator: Sketch 40.3 (33839) - http://www.bohemiancoding.com/sketch -->
    <title>Shape</title>
    <desc>Created with Sketch.</desc>
    <defs></defs>
    <g id="Page-1" stroke="none" stroke-width="1" fill="none" fill-rule="evenodd">
        <path d="M1.9,5 C1.9,3.29 3.29,1.9 5,1.9 L9,1.9 L9,0 L5,0 C2.24,0 0,2.24 0,5 C0,7.76 2.24,10 5,10 L9,10 L9,8.1 L5,8.1 C3.29,8.1 1.9,6.71 1.9,5 L1.9,5 Z M6,6 L14,6 L14,4 L6,4 L6,6 L6,6 Z M15,0 L11,0 L11,1.9 L15,1.9 C16.71,1.9 18.1,3.29 18.1,5 C18.1,6.71 16.71,8.1 15,8.1 L11,8.1 L11,10 L15,10 C17.76,10 20,7.76 20,5 C20,2.24 17.76,0 15,0 L15,0 Z" id="Shape" fill="#FFD600"></path>
    </g>
</svg>