<?xml version="1.0" encoding="UTF-8"?>
<svg width="18px" height="11px" viewBox="0 0 18 11" version="1.1" xmlns="http://www.w3.org/2000/svg" xmlns:xlink="http://www.w3.org/1999/xlink">
    <!-- Generator: Sketch 47.1 (45422) - http://www.bohemiancoding.com/sketch -->
    <title>text_heading_2</title>
    <desc>Created with Sketch.</desc>
    <defs></defs>
    <g id="Page-1" stroke="none" stroke-width="1" fill="none" fill-rule="evenodd">
        <g id="text_heading_2" fill="#FFFFFF">
            <path d="M9.07128906,11 L6.68554688,11 L6.68554688,6.84375 L3.15136719,6.84375 L3.15136719,11 L0.751953125,11 L0.751953125,1.046875 L3.15136719,1.046875 L3.15136719,4.99804688 L6.68554688,4.99804688 L6.68554688,1.046875 L9.07128906,1.046875 L9.07128906,11 Z M17.390625,11 L10.4453125,11 L10.4453125,9.49609375 L13.6445312,6.1328125 C14.4329467,5.23502155 14.8271484,4.52181254 14.8271484,3.99316406 C14.8271484,3.5647765 14.7337249,3.23893341 14.546875,3.015625 C14.3600251,2.79231659 14.088869,2.68066406 13.7333984,2.68066406 C13.3824852,2.68066406 13.0976573,2.82991387 12.8789062,3.12841797 C12.6601552,3.42692207 12.5507812,3.79947693 12.5507812,4.24609375 L10.2402344,4.24609375 C10.2402344,3.63541361 10.3929021,3.07145441 10.6982422,2.55419922 C11.0035823,2.03694403 11.4274061,1.63248844 11.9697266,1.34082031 C12.512047,1.04915219 13.1181607,0.903320312 13.7880859,0.903320312 C14.8636121,0.903320312 15.6918916,1.15169022 16.2729492,1.6484375 C16.8540068,2.14518478 17.1445312,2.85839379 17.1445312,3.78808594 C17.1445312,4.18001498 17.0716153,4.56168434 16.9257812,4.93310547 C16.7799472,5.3045266 16.5532242,5.69417114 16.2456055,6.10205078 C15.9379867,6.50993042 15.4423862,7.05566064 14.7587891,7.73925781 L13.4736328,9.22265625 L17.390625,9.22265625 L17.390625,11 Z"></path>
        </g>
    </g>
</svg>