<?xml version="1.0" encoding="UTF-8"?>
<svg width="9px" height="10px" viewBox="0 0 9 10" version="1.1" xmlns="http://www.w3.org/2000/svg" xmlns:xlink="http://www.w3.org/1999/xlink">
    <!-- Generator: Sketch 47.1 (45422) - http://www.bohemiancoding.com/sketch -->
    <title>text_bold</title>
    <desc>Created with Sketch.</desc>
    <defs></defs>
    <g id="Page-1" stroke="none" stroke-width="1" fill="none" fill-rule="evenodd">
        <g id="text_bold" fill="#FFFFFF">
            <path d="M0.751953125,10 L0.751953125,0.046875 L4.32714844,0.046875 C5.6077538,0.046875 6.58186515,0.281573174 7.24951172,0.750976562 C7.91715829,1.22037995 8.25097656,1.90168824 8.25097656,2.79492188 C8.25097656,3.30989841 8.13248816,3.74967266 7.89550781,4.11425781 C7.65852746,4.47884297 7.30989813,4.74772049 6.84960938,4.92089844 C7.36914322,5.05761787 7.76790226,5.31282365 8.04589844,5.68652344 C8.32389462,6.06022322 8.46289062,6.51594783 8.46289062,7.05371094 C8.46289062,8.02897623 8.1541372,8.76155354 7.53662109,9.25146484 C6.91910499,9.74137615 6.00423783,9.99088537 4.79199219,10 L0.751953125,10 Z M3.15136719,5.76855469 L3.15136719,8.15429688 L4.72363281,8.15429688 C5.15657769,8.15429688 5.48925665,8.05517677 5.72167969,7.85693359 C5.95410272,7.65869042 6.0703125,7.37955909 6.0703125,7.01953125 C6.0703125,6.19010002 5.65788173,5.773112 4.83300781,5.76855469 L3.15136719,5.76855469 Z M3.15136719,4.19628906 L4.40234375,4.19628906 C4.92643491,4.19173175 5.30012909,4.09602958 5.5234375,3.90917969 C5.74674591,3.72232979 5.85839844,3.44661641 5.85839844,3.08203125 C5.85839844,2.66275832 5.73763142,2.36084077 5.49609375,2.17626953 C5.25455608,1.9916983 4.86491154,1.89941406 4.32714844,1.89941406 L3.15136719,1.89941406 L3.15136719,4.19628906 Z"></path>
        </g>
    </g>
</svg>