<?xml version="1.0" encoding="UTF-8"?>
<svg width="10px" height="12px" viewBox="0 0 10 12" version="1.1" xmlns="http://www.w3.org/2000/svg" xmlns:xlink="http://www.w3.org/1999/xlink">
    <!-- Generator: Sketch 40.3 (33839) - http://www.bohemiancoding.com/sketch -->
    <title>Shape</title>
    <desc>Created with Sketch.</desc>
    <defs></defs>
    <g id="Page-1" stroke="none" stroke-width="1" fill="none" fill-rule="evenodd">
        <path d="M7.37142857,5.82 C8.20285714,5.24571429 8.78571429,4.30285714 8.78571429,3.42857143 C8.78571429,1.49142857 7.28571429,1.77635684e-15 5.35714286,1.77635684e-15 L0,1.77635684e-15 L0,12 L6.03428571,12 C7.82571429,12 9.21428571,10.5428571 9.21428571,8.75142857 C9.21428571,7.44857143 8.47714286,6.33428571 7.37142857,5.82 L7.37142857,5.82 Z M2.57142857,2.14285714 L5.14285714,2.14285714 C5.85428571,2.14285714 6.42857143,2.71714286 6.42857143,3.42857143 C6.42857143,4.14 5.85428571,4.71428571 5.14285714,4.71428571 L2.57142857,4.71428571 L2.57142857,2.14285714 L2.57142857,2.14285714 Z M5.57142857,9.85714286 L2.57142857,9.85714286 L2.57142857,7.28571429 L5.57142857,7.28571429 C6.28285714,7.28571429 6.85714286,7.86 6.85714286,8.57142857 C6.85714286,9.28285714 6.28285714,9.85714286 5.57142857,9.85714286 L5.57142857,9.85714286 Z" id="Shape" fill="#FFD600"></path>
    </g>
</svg>