<svg viewBox="0 0 554 105" version="1.1" xmlns="http://www.w3.org/2000/svg" xmlns:xlink="http://www.w3.org/1999/xlink">
<title>DevCloud</title>
<desc>Created using Figma</desc>
<g id="Canvas" transform="translate(299 141)">
<g id="DevCloud">
<use xlink:href="#path0_fill" transform="translate(-311 -189)" fill="#FFFFFF"/>
</g>
</g>
<defs>
<path id="path0_fill" d="M 12.384 148.264L 12.384 52.936C 12.384 52.168 12.624 51.544 13.104 51.064C 13.68 50.488 14.304 50.2 14.976 50.2L 50.112 50.2C 64.032 50.2 75.936 55.144 85.824 65.032C 95.712 74.824 100.656 86.632 100.656 100.456C 100.656 114.376 95.712 126.28 85.824 136.168C 75.936 146.056 64.032 151 50.112 151L 14.976 151C 14.304 151 13.68 150.76 13.104 150.28C 12.624 149.704 12.384 149.032 12.384 148.264ZM 34.848 129.688L 48.672 129.688C 56.736 129.688 63.408 126.904 68.688 121.336C 74.064 115.672 76.752 108.712 76.752 100.456C 76.752 92.296 74.064 85.432 68.688 79.864C 63.408 74.2 56.736 71.368 48.672 71.368L 34.848 71.368L 34.848 129.688ZM 107.097 122.2C 107.097 113.944 109.977 106.84 115.737 100.888C 121.497 94.936 128.553 91.96 136.905 91.96C 144.393 91.96 150.825 94.552 156.201 99.736C 161.577 104.824 164.265 111.256 164.265 119.032C 164.265 120.28 164.169 121.576 163.977 122.92C 163.785 124.552 162.873 125.368 161.241 125.368L 126.681 125.368C 126.969 127.768 128.025 129.976 129.849 131.992C 131.769 133.912 134.409 134.872 137.769 134.872C 141.417 134.872 144.777 133.72 147.849 131.416C 149.289 130.264 150.489 130.264 151.449 131.416L 158.649 140.056C 159.801 141.592 159.753 142.984 158.505 144.232C 153.033 149.704 145.929 152.44 137.193 152.44C 128.745 152.44 121.593 149.512 115.737 143.656C 109.977 137.704 107.097 130.552 107.097 122.2ZM 128.553 114.136L 143.961 114.136C 143.865 112.312 143.049 110.728 141.513 109.384C 139.977 108.04 138.249 107.368 136.329 107.368C 134.409 107.368 132.681 108.04 131.145 109.384C 129.705 110.632 128.841 112.216 128.553 114.136ZM 194.57 151L 167.498 97.288C 167.018 96.328 167.018 95.464 167.498 94.696C 168.074 93.832 168.89 93.4 169.946 93.4L 186.074 93.4C 187.322 93.4 188.186 93.928 188.666 94.984L 197.162 114.568L 197.594 114.568L 206.666 94.984C 207.05 94.216 207.482 93.784 207.962 93.688C 208.442 93.496 209.306 93.4 210.554 93.4L 225.098 93.4C 226.154 93.4 226.922 93.832 227.402 94.696C 227.978 95.464 228.026 96.328 227.546 97.288L 200.186 151C 199.61 151.96 198.794 152.44 197.738 152.44L 197.018 152.44C 195.962 152.44 195.146 151.96 194.57 151ZM 247.972 137.464C 237.892 127.384 232.852 115.144 232.852 100.744C 232.852 86.344 237.892 74.104 247.972 64.024C 258.149 53.848 270.437 48.76 284.837 48.76C 298.276 48.76 309.893 53.224 319.685 62.152C 321.125 63.496 321.173 64.84 319.829 66.184L 308.596 77.848C 307.349 79 306.148 79 304.996 77.848C 299.524 72.952 293.045 70.504 285.557 70.504C 277.493 70.504 270.772 73.432 265.397 79.288C 260.021 85.048 257.332 92.008 257.332 100.168C 257.332 108.232 260.021 115.144 265.397 120.904C 270.868 126.568 277.637 129.4 285.701 129.4C 293.189 129.4 299.62 127.096 304.996 122.488C 306.34 121.336 307.589 121.384 308.74 122.632L 319.972 134.584C 321.22 135.832 321.173 137.128 319.829 138.472C 310.228 147.784 298.565 152.44 284.837 152.44C 270.437 152.44 258.149 147.448 247.972 137.464ZM 330.651 148.264L 330.651 52.936C 330.651 52.264 330.939 51.64 331.515 51.064C 332.091 50.488 332.715 50.2 333.387 50.2L 349.227 50.2C 349.899 50.2 350.523 50.488 351.099 51.064C 351.675 51.64 351.963 52.264 351.963 52.936L 351.963 148.264C 351.963 148.936 351.675 149.56 351.099 150.136C 350.523 150.712 349.899 151 349.227 151L 333.387 151C 332.715 151 332.091 150.712 331.515 150.136C 330.939 149.56 330.651 148.936 330.651 148.264ZM 363.031 122.056C 363.031 113.896 365.959 106.84 371.815 100.888C 377.767 94.936 384.823 91.96 392.983 91.96C 401.143 91.96 408.151 94.936 414.007 100.888C 419.959 106.84 422.935 113.896 422.935 122.056C 422.935 130.312 419.959 137.464 414.007 143.512C 408.151 149.464 401.143 152.44 392.983 152.44C 384.823 152.44 377.767 149.464 371.815 143.512C 365.959 137.464 363.031 130.312 363.031 122.056ZM 381.607 122.056C 381.607 125.32 382.711 128.104 384.919 130.408C 387.127 132.712 389.815 133.864 392.983 133.864C 396.151 133.864 398.839 132.712 401.047 130.408C 403.255 128.104 404.359 125.32 404.359 122.056C 404.359 118.888 403.255 116.2 401.047 113.992C 398.839 111.688 396.151 110.536 392.983 110.536C 389.815 110.536 387.127 111.688 384.919 113.992C 382.711 116.2 381.607 118.888 381.607 122.056ZM 432.714 122.2L 432.714 96.136C 432.714 95.368 432.954 94.744 433.434 94.264C 434.01 93.688 434.682 93.4 435.45 93.4L 450.858 93.4C 451.626 93.4 452.25 93.688 452.73 94.264C 453.306 94.744 453.594 95.368 453.594 96.136L 453.594 122.776C 453.594 125.848 454.41 128.488 456.042 130.696C 457.674 132.808 459.93 133.864 462.81 133.864C 465.498 133.864 467.61 132.856 469.146 130.84C 470.682 128.728 471.45 126.328 471.45 123.64L 471.45 96.136C 471.45 94.312 472.458 93.4 474.474 93.4L 489.162 93.4C 489.93 93.4 490.554 93.688 491.034 94.264C 491.61 94.744 491.898 95.368 491.898 96.136L 491.898 148.264C 491.898 148.936 491.61 149.56 491.034 150.136C 490.458 150.712 489.834 151 489.162 151L 482.394 151C 481.146 151 480.234 150.328 479.658 148.984L 477.498 143.656C 475.482 145.672 473.994 147.064 473.034 147.832C 472.074 148.6 470.154 149.56 467.274 150.712C 464.49 151.864 461.418 152.44 458.058 152.44C 449.898 152.44 443.61 149.608 439.194 143.944C 434.874 138.184 432.714 130.936 432.714 122.2ZM 503.241 122.2C 503.241 112.504 505.977 105.064 511.449 99.88C 516.921 94.6 523.737 91.96 531.897 91.96C 536.697 91.96 540.681 92.872 543.849 94.696L 543.849 52.936C 543.849 52.264 544.089 51.64 544.569 51.064C 545.145 50.488 545.817 50.2 546.585 50.2L 562.569 50.2C 563.241 50.2 563.865 50.488 564.441 51.064C 565.017 51.64 565.305 52.264 565.305 52.936L 565.305 148.264C 565.305 148.936 565.017 149.56 564.441 150.136C 563.865 150.712 563.241 151 562.569 151L 555.801 151C 554.457 151 553.449 150.04 552.777 148.12L 551.049 143.368C 550.569 144.04 549.849 144.904 548.889 145.96C 547.929 146.92 545.769 148.264 542.409 149.992C 539.049 151.624 535.497 152.44 531.753 152.44C 523.689 152.44 516.921 149.512 511.449 143.656C 505.977 137.704 503.241 130.552 503.241 122.2ZM 522.969 122.056C 522.969 125.416 524.073 128.248 526.281 130.552C 528.585 132.76 531.369 133.864 534.633 133.864C 537.897 133.864 540.633 132.76 542.841 130.552C 545.049 128.248 546.153 125.416 546.153 122.056C 546.153 118.792 545.049 116.056 542.841 113.848C 540.633 111.64 537.897 110.536 534.633 110.536C 531.369 110.536 528.585 111.64 526.281 113.848C 524.073 116.056 522.969 118.792 522.969 122.056Z"/>
</defs>
</svg>
