<?xml version="1.0" encoding="UTF-8"?>
<svg width="1024px" height="844px" viewBox="0 0 1024 844" version="1.1" xmlns="http://www.w3.org/2000/svg" xmlns:xlink="http://www.w3.org/1999/xlink">
    <!-- Generator: Sketch 45.2 (43514) - http://www.bohemiancoding.com/sketch -->
    <title>Flat Web Design Freebie by Andrei Dulcu</title>
    <desc>Created with Sketch.</desc>
    <defs>
        <linearGradient x1="0%" y1="0%" x2="101.999998%" y2="100.999999%" id="linearGradient-1">
            <stop stop-color="#3023AE" offset="0%"></stop>
            <stop stop-color="#7B16FF" offset="100%"></stop>
        </linearGradient>
    </defs>
    <g id="Page-1" stroke="none" stroke-width="1" fill="none" fill-rule="evenodd">
        <g id="Flat-Web-Design-Freebie-by-Andrei-Dulcu">
            <g id="header" transform="translate(-55.000000, -14.000000)">
                <rect id="blue" fill="url(#linearGradient-1)" x="39.1073093" y="0" width="1461.00897" height="686.759847"></rect>
                <g id="waves" transform="translate(0.000000, 406.634120)">
                    <g id="graph-copy" opacity="0.718127264" transform="translate(37.101806, 0.000000)">
                        <path d="M9.9440518,2.83832287 C11.4772713,-3.91805296 56.0811365,2.33356475 87.2905865,12.2454094 C114.639498,20.9311812 141.883622,35.8337627 167.636035,55.9492029 C191.231937,74.3801735 214.945828,93.0226555 230.044839,114.795019 C234.697783,121.504437 242.072337,125.56995 246.62277,132.369012 C250.191608,137.701418 257.604469,142.636077 260.21532,146.95367 C261.938453,149.803235 265.971814,151.612961 267.669299,153.004027 C268.493343,153.67932 265.324609,154.855336 267.669299,154.855336 C275.242092,154.855336 275.8891,163.760566 281.18877,170.477659 C289.863348,181.472295 302.664497,194.051048 316.880717,207.329997 C352.814337,240.894523 406.07662,270.367497 437.332578,269.752978 C460.395839,269.299535 497.364591,264.606411 528.953726,249.193234 C558.672002,234.692898 582.973497,210.132337 606.703544,188.367074 C623.692478,172.784778 637.351723,153.924744 652.017456,139.313439 C669.512103,121.88372 687.571024,109.181259 702.484737,97.163676 C709.940406,91.1558416 722.273013,87.2637745 728.56825,83.0342284 C731.290303,81.2053782 732.957887,81.7032229 735.334142,80.9444279 C736.549102,80.5564621 737.788533,78.5654207 739.781698,78.4050601 C752.043843,77.4185063 764.41824,73.4849121 776.599591,72.5195825 C815.497638,69.4370477 854.544127,85.6017869 890.355321,111.382732 C925.882269,136.959045 958.184194,172.022939 994.177826,201.315483 C1044.6015,242.351566 1100.51906,272.989097 1149.38244,269.752978 C1167.48254,268.554247 1187.51022,265.991517 1200.66275,257.495232 C1207.45072,253.110327 1216.68032,249.523032 1222.68117,244.355514 C1224.51973,242.772282 1225.71498,240.237568 1228.43329,239.314808 C1239.83345,235.444882 1245.55578,223.081522 1254.29233,210.909093 C1272.51115,185.525235 1290.80484,152.588947 1309.62482,140.446481 C1316.80124,135.816331 1319.84792,130.988473 1323.0895,128.345365 C1330.65576,122.176019 1333.1098,120.878038 1347.36902,111.382732 C1355.62628,105.884167 1397.99008,105.389684 1405.38759,100.774607 C1418.65478,100.60484 1440.05826,103.335451 1444.60947,102.222564 C1466.6816,96.8253747 1482.42785,119.99195 1503.76582,114.795019 C1552.79128,102.854709 1622.36066,109.393905 1683.70606,134.379824 C1689.22924,136.629406 1694.66203,137.324714 1700.45451,139.313439 C1718.50932,145.512174 1734.98489,153.03158 1750.56452,161.079533 C1768.60667,170.399548 1789.22322,175.40681 1803.66803,182.115994 C1812.04307,186.005949 1819.80373,189.221876 1825.97854,191.594767 C1829.66274,193.010551 1831.67025,195.108882 1835.98214,194.153982 C1839.12052,193.458964 1842.61659,199.686997 1845.44171,201.315483 C1849.74965,203.798719 1853.33794,202.588213 1858.32513,204.858598 C1872.80467,211.450306 1893.79286,215.887361 1912.32994,222.848374 C1917.16502,224.664036 1922.01978,226.18117 1927.27038,227.533099 C1946.82899,232.56907 1964.98361,235.834875 1982.36053,239.314808 C2013.42012,245.534856 2035.36808,250.315075 2046.19571,236.329057 C2086.98943,183.635943 2021.85254,0.0963067901 2021.85254,0.0963067901 L2021.85254,280.878753 L26.3298138,280.878753 C26.3298138,280.878753 -19.003115,130.398619 9.9440518,2.83832287 Z" id="Rectangle" fill="#FFFFFF"></path>
                        <path d="M12.4720171,0.0963067901 C227.857535,0.0963143625 285.299732,269.089877 445.903256,269.089877 C606.50678,269.089877 644.691424,72.0697492 785.888689,72.0697492 C927.085954,72.0697492 986.990077,269.089877 1151.91436,269.089877 C1253.66998,269.089877 1262.46274,163.072171 1339.43318,116.589627 C1387.21551,87.7338186 1500.0656,109.687342 1560.09846,109.687342 C1716.83561,109.687342 1859.97432,246.340104 2060.65438,246.340104" id="COMMENTS_GRAPH" stroke="#FFFFFF" stroke-width="4" stroke-linecap="round" stroke-linejoin="round"></path>
                    </g>
                    <g id="graph-copy-2" opacity="0.542572464" transform="translate(0.000000, 65.513275)">
                        <path d="M7.45682911,2.17630118 C8.60655724,-3.00419074 42.0540299,1.78927485 65.4573206,9.38924153 C85.9656768,16.0491094 106.395456,27.4757537 125.706633,42.8993889 C143.400689,57.0314467 161.183222,71.3256822 172.505643,88.019773 C175.994785,93.1642598 181.524804,96.2815165 184.937075,101.494738 C187.613269,105.583393 193.172013,109.367073 195.129833,112.677613 C196.421974,114.862534 199.446504,116.250153 200.719411,117.316761 C201.337344,117.834546 198.961179,118.736263 200.719411,118.736263 C206.398084,118.736263 206.883262,125.564402 210.85737,130.714773 C217.362248,139.144977 226.961552,148.789812 237.621988,158.971525 C264.567831,184.707329 304.508064,207.305909 327.94623,206.834723 C345.24087,206.487043 372.962937,202.888562 396.650945,191.070415 C418.936036,179.952196 437.159201,161.120237 454.95385,144.43159 C467.693483,132.48377 477.936256,118.022726 488.933772,106.81942 C502.052628,93.4550772 515.594622,83.7153892 526.778093,74.5008347 C532.368937,69.8942914 541.616892,66.9100255 546.337554,63.6669955 C548.423988,62.2336444 550.912826,62.7750324 552.7665,62.1965704 C553.653545,61.919757 553.316413,60.235182 554.746276,60.1175528 C563.941393,59.3611067 573.220685,56.3449996 582.355216,55.6048273 C611.524019,53.2412752 640.804136,65.6356865 667.658175,85.4033816 C694.299064,105.014174 718.521578,131.899626 745.512423,154.359861 C783.324044,185.824525 825.255414,209.316037 861.897004,206.834723 C884.620967,205.295891 909.514197,201.719651 931.096947,194.228224 C957.472858,185.073079 979.974818,170.851486 1000.85504,157.076566 C1018.79742,145.239766 1037.98211,133.908478 1053.2558,123.508704 C1059.44774,119.292646 1066.25322,116.216251 1071.80045,112.677613 C1074.57706,110.906389 1077.62359,107.845981 1081.72936,106.81942 C1098.28077,102.681092 1111.64055,92.0045517 1127.64143,88.019773 C1164.40455,78.8644687 1216.57313,83.8784369 1262.57472,103.03654 C1266.71643,104.761421 1270.79036,105.294553 1275.13402,106.81942 C1288.67292,111.572337 1301.0276,117.337887 1312.71043,123.508704 C1326.23984,130.654882 1341.69974,134.49423 1352.5316,139.638537 C1358.81186,142.621184 1364.63141,145.087015 1369.26177,146.906443 C1372.02447,147.992004 1373.52986,149.600913 1376.76325,148.868737 C1379.11665,148.335828 1381.73828,153.111209 1383.85678,154.359861 C1387.08721,156.263897 1389.77799,155.335735 1393.51777,157.076566 C1404.37567,162.130798 1420.11426,165.532937 1434.01481,170.870335 C1437.64053,172.262505 1441.28101,173.425777 1445.21832,174.462376 C1459.8849,178.323737 1473.49866,180.827813 1486.52923,183.496072 C1509.82015,188.265332 1526.27845,191.930594 1534.39786,181.20673 C1564.98818,140.803967 1516.14344,0.0738438122 1516.14344,0.0738438122 L1516.14344,215.365478 L19.7441572,215.365478 C19.7441572,215.365478 -14.2500244,99.9839277 7.45682911,2.17630118 Z" id="Rectangle" fill="#FFFFFF"></path>
                        <path d="M9.35249552,0.0738438122 C170.865431,0.0738496184 213.940091,206.326286 334.373196,206.326286 C454.8063,206.326286 483.440138,55.259915 589.32091,55.259915 C695.201681,55.259915 740.122486,206.326286 863.795638,206.326286 C987.468789,206.326286 1052.35027,84.1034314 1169.88406,84.1034314 C1287.41784,84.1034314 1394.75447,188.88276 1545.24009,188.88276" id="COMMENTS_GRAPH" stroke="#FFFFFF" stroke-width="4" stroke-linecap="round" stroke-linejoin="round"></path>
                    </g>
                    <g id="graph" transform="translate(28.077043, 120.885544)">
                        <path d="M10.456981,1.72147949 C12.0692863,-2.19771384 58.9738861,1.42868277 91.7931666,7.17827937 C120.552776,12.2166638 149.202193,20.8612537 176.282955,32.5296838 C201.095969,43.220998 226.033058,54.0350044 241.910899,66.6645713 C246.803848,70.5565256 254.558794,72.9148213 259.343944,76.8587758 C263.096869,79.9519622 270.892096,82.8144265 273.637618,85.3189468 C275.449634,86.9719031 279.691041,88.0216773 281.476085,88.8285975 C282.342635,89.220317 279.010453,89.9024923 281.476085,89.9024923 C289.439494,89.9024923 290.119876,95.0681786 295.692911,98.964585 C304.814937,105.34228 318.276388,112.638879 333.225902,120.341643 C371.013033,139.811529 427.022665,156.908015 459.890852,156.551549 C484.143751,156.288518 523.019407,153.566163 556.237957,144.62539 C587.489146,136.214132 613.044149,121.967206 637.998228,109.341757 C655.863476,100.302883 670.227287,89.3626811 685.6495,80.8870527 C704.046547,70.7765375 723.036974,63.4081793 738.71996,56.4370999 C746.560203,52.9521154 759.528945,50.6944312 766.1489,48.2409844 C770.474913,46.6377041 771.74541,45.8306812 777.940754,45.5557274 C790.835399,44.9834538 803.848085,42.7016808 816.657769,42.1417188 C857.562236,40.3536226 898.622802,49.7303565 936.281191,64.6851948 C973.640674,79.5213317 1007.60878,99.8609607 1045.45902,116.852784 C1098.48362,140.656721 1157.2855,158.428735 1208.66932,156.551549 C1240.53596,155.387377 1275.44463,152.681847 1305.7109,147.014364 C1342.6988,140.08823 1374.25411,129.32918 1403.53519,118.90805 C1428.69645,109.953166 1455.59983,101.380716 1477.01868,93.5129831 C1485.70186,90.3234121 1495.24543,87.99603 1503.02451,85.3189468 C1506.91825,83.978964 1511.1905,81.6636766 1516.94818,80.8870527 C1540.15882,77.7562871 1558.89372,69.6791727 1581.33233,66.6645713 C1632.88659,59.7383164 1706.04447,63.5315296 1770.55416,78.0251941 C1776.36223,79.330117 1782.07526,79.7334463 1788.16652,80.8870527 C1807.15262,84.4827735 1824.47803,88.8445801 1840.86128,93.5129831 C1859.83407,98.9192753 1881.51405,101.823854 1896.70395,105.715673 C1905.51099,107.972132 1913.67195,109.837606 1920.16527,111.214056 C1924.03951,112.035314 1926.15057,113.252501 1930.68487,112.698588 C1933.98513,112.295427 1937.66154,115.908142 1940.63238,116.852784 C1945.16253,118.293243 1948.9359,117.591061 1954.18034,118.90805 C1969.40676,122.731724 1991.47756,125.305542 2010.9708,129.343439 C2016.05528,130.396656 2021.16046,131.276706 2026.68189,132.060924 C2047.24936,134.982156 2066.34043,136.876562 2084.61368,138.895178 C2117.27537,142.503262 2140.35544,145.27614 2151.74157,137.163224 C2194.6395,106.597355 2126.14275,0.130909129 2126.14275,0.130909129 L2126.14275,163.005314 L27.6879453,163.005314 C27.6879453,163.005314 -19.9833243,75.7158035 10.456981,1.72147949 Z" id="Rectangle" fill="#FFFFFF"></path>
                        <path d="M13.1153425,0.130909129 C239.610771,0.130913521 300.015922,156.166901 468.903618,156.166901 C637.791314,156.166901 677.94558,41.8807826 826.426013,41.8807826 C974.906446,41.8807826 1037.90051,156.166901 1211.33184,156.166901 C1384.76318,156.166901 1475.74882,63.7017446 1640.5707,63.7017446 C1805.39258,63.7017446 1955.91461,142.970365 2166.94604,142.970365" id="COMMENTS_GRAPH" stroke="#FFFFFF" stroke-width="4" stroke-linecap="round" stroke-linejoin="round"></path>
                    </g>
                </g>
            </g>
        </g>
    </g>
</svg>