<?xml version="1.0" encoding="UTF-8"?>
<svg viewBox="0 0 1440 713" version="1.1" xmlns="http://www.w3.org/2000/svg" xmlns:xlink="http://www.w3.org/1999/xlink">
    <!-- Generator: Sketch 45.2 (43514) - http://www.bohemiancoding.com/sketch -->
    <title>header</title>
    <desc>Created with Sketch.</desc>
    <defs>
        <linearGradient x1="0%" y1="0%" x2="101.999998%" y2="100.999999%" id="linearGradient-1">
            <stop stop-color="#3023AE" offset="0%"></stop>
            <stop stop-color="#7B16FF" offset="100%"></stop>
        </linearGradient>
    </defs>
    <g id="Page-1" stroke="none" stroke-width="1" fill="none" fill-rule="evenodd">
        <g id="Flat-Web-Design-Freebie-by-Andrei-Dulcu">
            <g id="header" transform="translate(-55.000000, -14.000000)">
                <rect id="blue" fill="url(#linearGradient-1)" x="39" y="0" width="1457" height="722.313832"></rect>
                <g id="waves" transform="translate(0.000000, 427.685822)">
                    <g id="graph-copy" opacity="0.718127264" transform="translate(37.000000, 0.000000)">
                        <path d="M9.91676561,2.98526461 C11.445778,-4.120893 55.9272515,2.45437485 87.0510636,12.8793619 C114.32493,22.0148014 141.494298,37.6888989 167.176047,58.845728 C190.707202,78.2308814 214.356023,97.8384963 229.413603,120.738028 C234.053779,127.794797 241.408098,132.070784 245.946044,139.221838 C249.505089,144.830306 256.897609,150.020436 259.501296,154.561553 C261.219702,157.558641 265.241995,159.462059 266.934822,160.925141 C267.756605,161.635394 264.596566,162.872293 266.934822,162.872293 C274.486836,162.872293 275.132068,172.238552 280.417196,179.303393 C289.067972,190.867229 301.833994,204.097192 316.011205,218.0636 C351.846225,253.365783 404.962358,284.364591 436.13255,283.718258 C459.132527,283.24134 495.999837,278.30525 527.502292,262.094123 C557.139022,246.843096 581.373834,221.011019 605.038767,198.118954 C621.981084,181.729953 635.602849,161.893524 650.22834,146.525783 C667.674981,128.193716 685.684349,114.833641 700.55714,102.1939 C707.992351,95.8750363 720.291117,91.7814745 726.56908,87.3329622 C729.283664,85.4094312 730.946672,85.9330497 733.316406,85.1349714 C734.528033,84.7269203 735.764063,82.6328014 737.751759,82.4641389 C749.980257,81.4265106 762.320698,77.2892718 774.468624,76.2739664 C813.259936,73.0318469 852.199283,90.0334447 887.912212,117.149085 C923.341676,144.0495 955.554964,180.928674 991.449831,211.737711 C1041.73514,254.898257 1097.49927,287.121912 1146.22857,283.718258 C1164.279,282.457468 1184.25173,279.762064 1197.36816,270.825921 C1204.13751,266.214007 1213.34178,262.440995 1219.32617,257.005952 C1221.15968,255.340754 1222.35166,252.674816 1225.0625,251.704284 C1236.43139,247.63401 1242.13801,234.630592 1250.85059,221.827988 C1269.01941,195.129992 1287.26291,160.488572 1306.03125,147.717483 C1313.18797,142.847627 1316.2263,137.769828 1319.45898,134.989884 C1327.00448,128.501147 1329.45179,127.13597 1343.67188,117.149085 C1351.90648,111.365856 1394.15403,110.845774 1401.53125,105.991771 C1414.76203,105.813216 1436.10678,108.685191 1440.64551,107.51469 C1462.65707,101.838085 1478.36011,126.204008 1499.63953,120.738028 C1548.53046,108.179562 1617.90895,115.057296 1679.08602,141.336751 C1684.59404,143.702796 1690.01193,144.4341 1695.78851,146.525783 C1713.79378,153.04543 1730.22414,160.95412 1745.76102,169.418721 C1763.75367,179.221239 1784.31364,184.48773 1798.71882,191.544252 C1807.07088,195.635593 1814.81024,199.018011 1820.96811,201.513747 C1824.6422,203.002827 1826.6442,205.209791 1830.94426,204.205455 C1834.07402,203.474456 1837.56051,210.024917 1840.37787,211.737711 C1844.674,214.349506 1848.25243,213.076331 1853.22594,215.464255 C1867.66575,222.39722 1888.59635,227.063984 1907.08256,234.385373 C1911.90437,236.295033 1916.74581,237.89071 1921.982,239.31263 C1941.48694,244.609315 1959.59175,248.044193 1976.92099,251.704284 C2007.89535,258.246348 2029.78309,263.274042 2040.58101,248.563959 C2081.26279,193.14289 2016.30464,0.101292653 2016.30464,0.101292653 L2016.30464,295.420021 L26.2575656,295.420021 C26.2575656,295.420021 -18.950971,137.149437 9.91676561,2.98526461 Z" id="Rectangle" fill="#FFFFFF"></path>
                        <path d="M12.4377942,0.101292653 C227.232301,0.101300617 284.516878,283.020828 444.67971,283.020828 C604.842543,283.020828 642.92241,75.800845 783.732233,75.800845 C924.542057,75.800845 984.281805,283.020828 1148.75354,283.020828 C1250.22995,283.020828 1258.99858,171.514518 1335.75781,122.625544 C1383.40903,92.2758531 1495.94947,115.365924 1555.8176,115.365924 C1712.12466,115.365924 1854.87061,259.093284 2055,259.093284" id="COMMENTS_GRAPH" stroke="#FFFFFF" stroke-width="4" stroke-linecap="round" stroke-linejoin="round"></path>
                    </g>
                    <g id="graph-copy-2" opacity="0.542572464" transform="translate(0.000000, 68.904938)">
                        <path d="M7.43636779,2.28896965 C8.5829411,-3.15971957 41.9386348,1.88190672 65.2777076,9.87532841 C85.7297895,16.8799818 106.10351,28.8981906 125.361697,45.1203169 C143.007201,59.9840002 160.74094,75.0182572 172.032293,92.5766115 C175.51186,97.9874315 181.026705,101.266071 184.429613,106.749184 C187.098464,111.049511 192.641954,115.029074 194.594403,118.511003 C195.882998,120.809039 198.899228,122.268495 200.168643,123.390322 C200.78488,123.934914 198.415235,124.883313 200.168643,124.883313 C205.831734,124.883313 206.31558,132.064949 210.278783,137.481959 C216.765812,146.348599 226.338776,156.492753 236.96996,167.20158 C263.841865,194.269742 303.672503,218.038265 327.046355,217.542686 C344.293539,217.177006 371.939537,213.392229 395.562546,200.96225 C417.786488,189.268433 435.959649,169.461532 453.70547,151.908903 C466.410146,139.342538 476.624813,124.132836 487.592152,112.349528 C500.67501,98.2933048 514.179845,88.049387 525.332629,78.3577893 C530.908133,73.5127624 540.130711,70.3739992 544.83842,66.9630755 C546.919128,65.4555189 549.401138,66.0249349 551.249725,65.4165256 C552.134336,65.1253814 551.798129,63.3535949 553.224068,63.229876 C562.393954,62.4342682 571.647784,59.2620154 580.75725,58.4835239 C609.846015,55.9976091 639.045788,69.0336869 665.82614,89.8247679 C692.393928,110.450823 716.549975,138.728152 743.466759,162.351167 C781.174626,195.444776 822.990937,220.152458 859.531984,217.542686 C882.193593,215.924187 907.018516,212.162803 928.542044,204.28354 C954.845581,194.654428 977.285796,179.696574 998.108718,165.208517 C1016.00187,152.758919 1035.13391,140.841003 1050.3657,129.902826 C1056.54065,125.4685 1063.32745,122.232839 1068.85946,118.511003 C1071.62845,116.648082 1074.66662,113.429235 1078.76113,112.349528 C1095.26712,107.996956 1108.59024,96.7676847 1124.54721,92.5766115 C1161.20946,82.9473314 1213.23489,88.2208758 1259.11025,108.370806 C1263.24059,110.184986 1267.30335,110.745717 1271.63508,112.349528 C1285.13684,117.348507 1297.45762,123.412542 1309.10839,129.902826 C1322.60068,137.418966 1338.01816,141.45708 1348.82029,146.867711 C1355.08332,150.004771 1360.8869,152.59826 1365.50455,154.511881 C1368.25967,155.653642 1369.76093,157.345845 1372.98545,156.575764 C1375.33239,156.015266 1377.94683,161.037872 1380.05951,162.351167 C1383.28108,164.353777 1385.96448,163.377562 1389.694,165.208517 C1400.5221,170.52441 1416.21751,174.10268 1430.07992,179.716399 C1433.69569,181.180642 1437.32618,182.404137 1441.25268,183.494402 C1455.87902,187.555668 1469.45542,190.189381 1482.45024,192.995778 C1505.67725,198.011945 1522.09039,201.86696 1530.18751,190.587915 C1560.6939,148.093476 1511.98319,0.0776667524 1511.98319,0.0776667524 L1511.98319,226.515083 L19.6899798,226.515083 C19.6899798,226.515083 -14.2109228,105.160158 7.43636779,2.28896965 Z" id="Rectangle" fill="#FFFFFF"></path>
                        <path d="M9.32683255,0.0776667524 C170.396582,0.0776728591 213.353045,217.007927 333.455685,217.007927 C453.558325,217.007927 482.113593,58.1207552 587.70383,58.1207552 C693.294068,58.1207552 738.091611,217.007927 861.425407,217.007927 C984.759204,217.007927 1049.46265,88.4575184 1166.67393,88.4575184 C1283.88521,88.4575184 1390.9273,198.661339 1541,198.661339" id="COMMENTS_GRAPH" stroke="#FFFFFF" stroke-width="4" stroke-linecap="round" stroke-linejoin="round"></path>
                    </g>
                    <g id="graph" transform="translate(28.000000, 126.721725)">
                        <path d="M10.4282873,2.23274039 C12.0361685,-1.88935202 58.8120635,1.9247854 91.5412888,7.9720422 C120.221983,13.2712669 148.792787,22.3633926 175.799239,34.6359046 C200.544168,45.8807149 225.41283,57.254569 241.247102,70.5379765 C246.126626,74.6314198 253.860292,77.1118059 258.632312,81.2599413 C262.374938,84.5132639 270.148776,87.5239198 272.886765,90.1581006 C274.693808,91.8966316 278.923577,93.0007532 280.703723,93.8494481 C281.567895,94.2614472 278.244856,94.9789392 280.703723,94.9789392 C288.645281,94.9789392 289.323795,100.412056 294.881538,104.510182 C303.978534,111.218054 317.403047,118.892403 332.31154,126.993943 C369.994984,147.471798 425.850927,165.453379 458.628925,165.078459 C482.815275,164.801811 521.584257,161.938517 554.711656,152.534875 C585.877093,143.688161 611.361974,128.703663 636.247579,115.424587 C654.063806,105.917765 668.388203,94.4111816 683.768098,85.4967647 C702.114664,74.8628218 721.052982,67.112999 736.692934,59.7810225 C744.511664,56.1156183 757.44482,53.7410523 764.04661,51.160589 C768.360752,49.474306 769.627763,48.6255029 775.806107,48.3363146 C788.66537,47.7344141 801.64235,45.3345122 814.416884,44.7455607 C855.20911,42.8648937 896.157008,52.7270669 933.712063,68.4561265 C970.969032,84.0603394 1004.84393,105.452964 1042.59031,123.324464 C1095.46941,148.360745 1154.10994,167.052828 1205.35277,165.078459 C1237.13196,163.854017 1271.94485,161.00842 1302.12807,155.047528 C1339.01447,147.762824 1370.4832,136.446771 1399.68393,125.486133 C1424.77615,116.067649 1451.6057,107.051398 1472.96578,98.7763473 C1481.62514,95.4216502 1491.14252,92.9737782 1498.90026,90.1581006 C1502.78331,88.7487461 1507.04384,86.3135948 1512.78572,85.4967647 C1535.93267,82.2039174 1554.61616,73.7086457 1576.9932,70.5379765 C1628.406,63.2531451 1701.36314,67.2427353 1765.69581,82.4867458 C1771.48794,83.8592254 1777.18529,84.2834353 1783.25984,85.4967647 C1802.19384,89.2786382 1819.47171,93.8662581 1835.81001,98.7763473 C1854.73074,104.462527 1876.35123,107.517477 1891.49945,111.610778 C1900.28232,113.984055 1908.42089,115.946106 1914.89639,117.393816 C1918.76,118.257591 1920.86526,119.537792 1925.38712,118.955203 C1928.67833,118.53117 1932.34465,122.330918 1935.30734,123.324464 C1939.82506,124.839497 1943.58808,124.100962 1948.81813,125.486133 C1964.00276,129.507761 1986.013,132.214826 2005.45276,136.461769 C2010.52329,137.569511 2015.61445,138.495121 2021.12073,139.319939 C2041.63177,142.392405 2060.67045,144.384886 2078.89356,146.508007 C2111.46562,150.302883 2134.48236,153.219315 2145.83726,144.686388 C2188.61747,112.538105 2120.30868,0.55982521 2120.30868,0.55982521 L2120.30868,171.866339 L27.6119704,171.866339 C27.6119704,171.866339 -19.9284907,80.0577966 10.4282873,2.23274039 Z" id="Rectangle" fill="#FFFFFF"></path>
                        <path d="M13.0793544,0.55982521 C238.953286,0.55982983 299.192687,164.673898 467.61696,164.673898 C636.041233,164.673898 676.085317,44.4711156 824.158324,44.4711156 C972.231331,44.4711156 1035.05254,164.673898 1208.00799,164.673898 C1380.96343,164.673898 1471.6994,67.4217624 1636.06902,67.4217624 C1800.43863,67.4217624 1950.54763,150.794169 2161,150.794169" id="COMMENTS_GRAPH" stroke="#FFFFFF" stroke-width="4" stroke-linecap="round" stroke-linejoin="round"></path>
                    </g>
                </g>
                <rect id="Rectangle-2" x="55" y="14" width="1440" height="927"></rect>
            </g>
        </g>
    </g>
</svg>